<svg xmlns="http://www.w3.org/2000/svg" viewBox="0 0 625.48 132.46"><defs><style>.a{fill:none;stroke:#fff;stroke-linecap:round;stroke-linejoin:round;stroke-width:8px;}.b{isolation:isolate;}.c{font-size:110px;fill:#fff;font-family:Barlow-SemiBold, Barlow;font-weight:600;}.d{letter-spacing:-0.02em;}.e{letter-spacing:-0.02em;}.f{letter-spacing:0em;}.g{letter-spacing:-0.01em;}.h{letter-spacing:-0.01em;}.i{letter-spacing:-0.02em;}.j{letter-spacing:-0.01em;}.k{letter-spacing:-0.02em;}.l{letter-spacing:0em;}</style></defs><title>buf311_logo</title><path class="a" d="M28.91,106.2C14.27,107.61,4,110.9,4,114.73,4,119.85,22.3,124,44.87,124s40.86-4.15,40.86-9.27c0-3.8-10.08-7.06-24.5-8.49"/><path class="a" d="M19.29,63c7.17,15.81,18.37,33.42,26.1,46.33C58.56,88.13,78.44,57,78.44,38.69A33.06,33.06,0,0,0,58,8.12"/><path class="a" d="M62.39,48.56C61,47.05,52.21,36.7,50.55,35A23.37,23.37,0,0,0,22.9,4.67,2,2,0,0,0,21.47,7a2,2,0,0,0,.51.9L34,20.13l-1.91,11L21,32.94,9,20.76a2,2,0,0,0-3.29.9,23.33,23.33,0,0,0,30,28C37.28,51.23,51.9,67,53.54,68.55"/><g class="b"><text class="c" transform="translate(125.79 107.04)"><tspan class="d">B</tspan><tspan class="e" x="66.22" y="0">u</tspan><tspan class="f" x="123.93" y="0">f</tspan><tspan class="g" x="165.02" y="0">f</tspan><tspan class="h" x="204.77" y="0">a</tspan><tspan class="i" x="261.4" y="0">l</tspan><tspan x="286.31" y="0">o </tspan><tspan class="j" x="369.58" y="0">3</tspan><tspan class="k" x="426.69" y="0">1</tspan><tspan class="l" x="462.18" y="0">1</tspan></text></g></svg>