<?xml version="1.0" encoding="utf-8"?>
<!-- Generator: Adobe Illustrator 23.0.1, SVG Export Plug-In . SVG Version: 6.00 Build 0)  -->
<svg version="1.1" id="Layer_1" xmlns="http://www.w3.org/2000/svg" xmlns:xlink="http://www.w3.org/1999/xlink" x="0px" y="0px"
	 viewBox="0 0 625.5 132.5" style="enable-background:new 0 0 625.5 132.5;" xml:space="preserve">
<style type="text/css">
	.st0{fill:none;stroke:#FFFFFF;stroke-width:8;stroke-linecap:round;stroke-linejoin:round;}
	.st1{enable-background:new    ;}
	.st2{fill:#FFFFFF;}
</style>
<title>buf311_logo</title>
<path class="st0" d="M28.9,106.2C14.3,107.6,4,110.9,4,114.7c0,5.1,18.3,9.3,40.9,9.3s40.9-4.2,40.9-9.3c0-3.8-10.1-7.1-24.5-8.5"/>
<path class="st0" d="M19.3,63c7.2,15.8,18.4,33.4,26.1,46.3C58.6,88.1,78.4,57,78.4,38.7c0-13.4-8.1-25.5-20.4-30.6"/>
<path class="st0" d="M62.4,48.6C61,47,52.2,36.7,50.5,35c4.2-12.2-2.3-25.5-14.5-29.7c-4.2-1.5-8.8-1.7-13.2-0.6
	c-1,0.3-1.6,1.3-1.4,2.3c0.1,0.3,0.3,0.6,0.5,0.9l12,12.2l-1.9,11L21,32.9L9,20.8C8.2,20,6.9,20,6.2,20.8c-0.2,0.2-0.4,0.5-0.5,0.8
	C2.5,34.1,9.9,46.9,22.4,50.1c4.4,1.1,9,1,13.3-0.5c1.6,1.6,16.2,17.3,17.8,18.9"/>
<g class="st1">
	<path class="st2" d="M176.6,67.2c0,0.2,0.1,0.3,0.4,0.5c7.3,3.5,11,9.5,11,18c0,7-2.3,12.3-7,15.9c-4.7,3.6-10.7,5.4-18.2,5.4
		h-27.3c-1.2,0-1.8-0.6-1.8-1.8V31.8c0-1.2,0.6-1.8,1.8-1.8H162c8,0,14.2,1.7,18.5,5.2c4.3,3.4,6.5,8.7,6.5,15.6
		c0,7.6-3.3,12.9-9.9,16C176.8,66.9,176.6,67,176.6,67.2z M146.6,41.7v20.1c0,0.4,0.2,0.7,0.7,0.7H162c3.9,0,6.9-0.9,9.2-2.8
		c2.2-1.9,3.4-4.5,3.4-7.8c0-3.4-1.1-6-3.4-8c-2.2-1.9-5.3-2.9-9.2-2.9h-14.7C146.8,41,146.6,41.3,146.6,41.7z M171.9,92.8
		c2.2-2.1,3.4-4.8,3.4-8.4c0-3.6-1.1-6.4-3.4-8.4c-2.3-2-5.4-3-9.2-3h-15.4c-0.4,0-0.7,0.2-0.7,0.7v21.6c0,0.4,0.2,0.7,0.7,0.7h15.6
		C166.7,95.9,169.7,94.9,171.9,92.8z"/>
</g>
<g class="st1">
	<path class="st2" d="M233.8,50.8h9.1c1.2,0,1.8,0.6,1.8,1.8v52.7c0,1.2-0.6,1.8-1.8,1.8h-9.1c-1.2,0-1.8-0.6-1.8-1.8v-2.9
		c0-0.3-0.1-0.5-0.3-0.5c-0.2-0.1-0.3,0-0.5,0.3c-2.9,3.7-7.4,5.6-13.4,5.6c-5.6,0-10.2-1.6-14-4.8c-3.8-3.2-5.7-7.8-5.7-13.8V52.6
		c0-1.2,0.6-1.8,1.8-1.8h9.2c1.2,0,1.8,0.6,1.8,1.8v33c0,3.4,0.9,6.2,2.7,8.2c1.8,2.1,4.3,3.1,7.5,3.1c3.3,0,5.9-1,7.9-3.1
		c2-2.1,3-4.8,3-8.2v-33C232,51.4,232.6,50.8,233.8,50.8z"/>
</g>
<g class="st1">
	<path class="st2" d="M287.1,52.5v7.8c0,1.2-0.6,1.8-1.8,1.8H275c-0.4,0-0.7,0.2-0.7,0.7v42.6c0,1.2-0.6,1.8-1.8,1.8h-9.2
		c-1.2,0-1.8-0.6-1.8-1.8V62.7c0-0.4-0.2-0.7-0.7-0.7h-6.3c-1.2,0-1.8-0.6-1.8-1.8v-7.8c0-1.2,0.6-1.8,1.8-1.8h6.3
		c0.4,0,0.7-0.2,0.7-0.7v-1.9c0-4.8,0.6-8.5,1.9-11.1c1.2-2.6,3.3-4.5,6.2-5.6s6.9-1.6,12.1-1.5h3.4c1.2,0,1.8,0.6,1.8,1.8v6.8
		c0,1.2-0.6,1.8-1.8,1.8h-2.4c-3.2,0-5.3,0.6-6.5,1.9c-1.2,1.2-1.8,3.5-1.8,6.8v1c0,0.4,0.2,0.7,0.7,0.7h10.3
		C286.5,50.7,287.1,51.3,287.1,52.5z"/>
</g>
<g class="st1">
	<path class="st2" d="M328.2,52.5v7.8c0,1.2-0.6,1.8-1.8,1.8h-10.3c-0.4,0-0.7,0.2-0.7,0.7v42.6c0,1.2-0.6,1.8-1.8,1.8h-9.2
		c-1.2,0-1.8-0.6-1.8-1.8V62.7c0-0.4-0.2-0.7-0.7-0.7h-6.3c-1.2,0-1.8-0.6-1.8-1.8v-7.8c0-1.2,0.6-1.8,1.8-1.8h6.3
		c0.4,0,0.7-0.2,0.7-0.7v-1.9c0-4.8,0.6-8.5,1.9-11.1c1.2-2.6,3.3-4.5,6.2-5.6c2.9-1.1,6.9-1.6,12.1-1.5h3.4c1.2,0,1.8,0.6,1.8,1.8
		v6.8c0,1.2-0.6,1.8-1.8,1.8h-2.4c-3.2,0-5.3,0.6-6.5,1.9c-1.2,1.2-1.8,3.5-1.8,6.8v1c0,0.4,0.2,0.7,0.7,0.7h10.3
		C327.6,50.7,328.2,51.3,328.2,52.5z"/>
</g>
<g class="st1">
	<path class="st2" d="M371.1,52.4c3.6,1.6,6.3,3.8,8.2,6.7c1.9,2.8,2.9,6,2.9,9.6v36.6c0,1.2-0.6,1.8-1.8,1.8h-9.2
		c-1.2,0-1.8-0.6-1.8-1.8v-2.8c0-0.3-0.1-0.5-0.2-0.5c-0.1,0-0.3,0-0.5,0.2c-4,3.8-9.2,5.7-15.8,5.7c-5.4,0-9.9-1.4-13.4-4.2
		c-3.5-2.8-5.2-6.9-5.2-12.4c0-5.7,2-10.2,6-13.4c4-3.2,9.6-4.8,16.9-4.8h11.7c0.4,0,0.7-0.2,0.7-0.7V70c0-2.9-0.9-5.1-2.6-6.7
		c-1.7-1.6-4.3-2.4-7.6-2.4c-2.6,0-4.7,0.5-6.4,1.4c-1.7,0.9-2.8,2.2-3.4,3.8c-0.3,1-1,1.5-2,1.4l-9.9-1.2c-0.6-0.1-1-0.2-1.3-0.5
		c-0.3-0.3-0.4-0.6-0.3-0.9c0.7-4.4,3.1-8,7.3-10.8c4.2-2.8,9.4-4.2,15.7-4.2C363.5,50,367.5,50.8,371.1,52.4z M365.5,94.9
		c2.6-1.9,3.8-4.3,3.8-7.3v-5.1c0-0.4-0.2-0.7-0.7-0.7h-9.1c-3.9,0-7,0.7-9.2,2.2c-2.3,1.5-3.4,3.6-3.4,6.3c0,2.3,0.9,4.2,2.6,5.4
		c1.8,1.3,4,1.9,6.7,1.9C359.9,97.8,363,96.8,365.5,94.9z"/>
</g>
<g class="st1">
	<path class="st2" d="M394.1,105.3V31.8c0-1.2,0.6-1.8,1.8-1.8h9.2c1.2,0,1.8,0.6,1.8,1.8v73.5c0,1.2-0.6,1.8-1.8,1.8h-9.2
		C394.7,107,394.1,106.5,394.1,105.3z"/>
</g>
<g class="st1">
	<path class="st2" d="M427.9,103.5c-4.2-2.9-7.1-7-8.7-12.2c-1.2-3.6-1.9-7.8-1.9-12.5c0-4.7,0.6-8.9,1.8-12.5
		c1.7-5.1,4.6-9.1,8.8-12c4.2-2.9,9.2-4.3,15.1-4.3c5.6,0,10.4,1.4,14.5,4.3c4.1,2.9,6.9,6.8,8.6,11.9c1.3,3.5,2,7.7,2,12.5
		c0,4.6-0.6,8.8-1.9,12.5c-1.7,5.2-4.6,9.3-8.7,12.3c-4.1,3-9,4.5-14.6,4.5C437.1,107.9,432.1,106.5,427.9,103.5z M449.9,94.6
		c1.9-1.5,3.3-3.7,4.1-6.5c0.8-2.3,1.2-5.4,1.2-9.2c0-3.6-0.4-6.7-1.1-9.2c-0.8-2.8-2.2-4.9-4.2-6.4c-2-1.5-4.4-2.3-7.2-2.3
		c-2.8,0-5.2,0.8-7.1,2.3c-2,1.5-3.4,3.6-4.2,6.4c-0.7,2.6-1.1,5.6-1.1,9.2c0,3.6,0.4,6.7,1.1,9.2c0.8,2.8,2.2,5,4.2,6.5
		c2,1.5,4.5,2.3,7.3,2.3C445.6,96.9,447.9,96.2,449.9,94.6z"/>
</g>
<g class="st1">
	<path class="st2" d="M548.3,82.5c0,3.4-0.7,7.1-2,10.9c-1.7,4.6-4.5,8.2-8.4,10.7c-3.9,2.5-8.6,3.8-14.1,3.8
		c-5.4,0-10.1-1.4-14.1-4.1c-4-2.8-6.8-6.5-8.5-11.2c-0.7-2.4-1.2-5.2-1.5-8.5c0-1.2,0.6-1.8,1.8-1.8h9.3c1.2,0,1.8,0.6,1.9,1.8
		c0.1,1.9,0.4,3.6,0.9,5.2c0.7,2.3,2,4.2,3.8,5.6c1.8,1.4,4,2,6.5,2c4.9,0,8.2-2.2,9.9-6.6c1.1-2.3,1.7-5.1,1.7-8.1
		c0-3.6-0.6-6.7-1.9-9.3c-1.8-4.1-5-6.2-9.8-6.2c-1.2,0-2.7,0.5-4.4,1.4c-0.4,0.2-0.8,0.3-1.1,0.3c-0.4,0-0.9-0.3-1.3-0.8l-4.6-5.8
		c-0.3-0.4-0.4-0.8-0.4-1.2c0-0.4,0.2-0.9,0.7-1.3l17.7-17.5c0.2-0.2,0.3-0.4,0.2-0.5c-0.1-0.1-0.3-0.2-0.5-0.2h-27.3
		c-1.2,0-1.8-0.6-1.8-1.8v-7.5c0-1.2,0.6-1.8,1.8-1.8h43c1.2,0,1.8,0.6,1.8,1.8V40c0,0.7-0.3,1.5-0.9,2.2l-15.7,16
		c-0.1,0.1-0.1,0.2-0.1,0.3c0,0.2,0.2,0.4,0.7,0.5c7,1,11.9,4.8,14.7,11.3C547.5,73.9,548.3,78,548.3,82.5z"/>
</g>
<g class="st1">
	<path class="st2" d="M570.7,30h9.9c1.2,0,1.8,0.6,1.8,1.8v73.5c0,1.2-0.6,1.8-1.8,1.8h-9.2c-1.2,0-1.8-0.6-1.8-1.8V42.9
		c0-0.5-0.3-0.7-0.8-0.5l-10.2,2.9c-0.1,0.1-0.3,0.1-0.6,0.1c-0.4,0-0.8-0.1-1-0.4c-0.3-0.3-0.4-0.7-0.4-1.2v-6.4
		c0-0.9,0.4-1.5,1.3-2l10.7-4.8C569.2,30.2,569.9,30,570.7,30z"/>
</g>
<g class="st1">
	<path class="st2" d="M606.2,30h9.9c1.2,0,1.8,0.6,1.8,1.8v73.5c0,1.2-0.6,1.8-1.8,1.8h-9.2c-1.2,0-1.8-0.6-1.8-1.8V42.9
		c0-0.5-0.3-0.7-0.8-0.5l-10.2,2.9c-0.1,0.1-0.3,0.1-0.5,0.1c-0.4,0-0.8-0.1-1-0.4c-0.3-0.3-0.4-0.7-0.4-1.2v-6.4
		c0-0.9,0.4-1.5,1.3-2l10.7-4.8C604.7,30.2,605.4,30,606.2,30z"/>
</g>
</svg>
